<?xml version="1.0" standalone="no"?>
<!DOCTYPE svg PUBLIC "-//W3C//DTD SVG 20010904//EN"
 "http://www.w3.org/TR/2001/REC-SVG-20010904/DTD/svg10.dtd">
<svg version="1.0" xmlns="http://www.w3.org/2000/svg"
 width="148.000000pt" height="148.000000pt" viewBox="0 0 148.000000 148.000000"
 preserveAspectRatio="xMidYMid meet">
<metadata>
Created by potrace 1.11, written by Peter Selinger 2001-2013
</metadata>
<g transform="translate(0.000000,148.000000) scale(0.100000,-0.100000)"
fill="#000000" stroke="none">
<path d="M605 1426 c-49 -29 -186 -108 -302 -176 l-213 -124 0 -162 0 -162
117 -69 c65 -37 125 -72 134 -78 9 -5 34 -20 57 -32 22 -12 106 -61 186 -108
80 -47 150 -85 156 -85 6 0 51 23 100 52 l89 52 -107 63 c-59 34 -207 120
-329 190 l-223 128 0 57 c0 52 2 58 28 71 15 8 120 68 235 135 l207 121 88
-50 c48 -28 92 -54 97 -58 6 -5 35 -22 65 -38 30 -17 92 -52 138 -78 l82 -47
0 -54 c0 -52 1 -55 41 -80 53 -33 126 -74 133 -74 3 0 6 69 6 154 l0 153 -305
177 c-361 209 -341 204 -480 122z"/>
<path d="M648 1027 c-49 -28 -88 -54 -88 -57 0 -3 69 -44 153 -92 83 -49 229
-133 322 -187 l170 -99 0 -58 0 -58 -145 -84 c-143 -83 -178 -103 -273 -157
l-47 -27 -98 56 c-53 31 -158 91 -232 134 l-135 78 -5 57 -5 57 -83 50 c-46
28 -85 50 -88 50 -3 0 -4 -71 -2 -157 l3 -156 159 -94 c87 -51 160 -93 161
-93 2 0 49 -27 104 -60 56 -33 105 -60 110 -60 5 0 11 -3 13 -7 2 -5 25 -20
51 -34 l49 -26 321 186 322 186 3 165 2 165 -324 188 c-178 103 -326 187 -328
187 -1 -1 -42 -24 -90 -53z"/>
</g>
</svg>
