<svg xmlns="http://www.w3.org/2000/svg" viewBox="0 0 28.44 32.78"><defs><style>.cls-3{fill:#ac3fc4}</style></defs><g id="Layer_2" data-name="Layer 2"><g id="Layer_1-2" data-name="Layer 1"><path d="M.05 8.27A1.52 1.52 0 01.31 8L14 .1l.2-.1 3 1.71 8.22 4.75L28.14 8a1.2 1.2 0 01.23.22l-2.73 1.61c-.36.21-.74.38-1.11.57l-4.47-2.56-5.63-3.25-.23-.11-.83.52q-4.48 2.53-8.95 5.13l-.53.27c-.17-.08-.36-.14-.53-.24z" fill="#9e6ac7"/><path d="M28.28 24.64l-3.53 2.06-10.23 5.91-.32.17-1.84-1.06-12-7a1.77 1.77 0 01-.17-.12 1.75 1.75 0 01.23-.24l3-1.69a5.3 5.3 0 01.58-.24l3.87 2.21 6.36 3.67 2.49-1.43 7.37-4.26.37-.19a1 1 0 01.25 0l2.77 1.6c.27.21.52.42.8.61z" fill="#ce1bbf"/><path class="cls-3" d="M28.28 24.64c-.27-.19-.53-.4-.82-.57l-2.77-1.6a1 1 0 00-.25 0 .78.78 0 00.09-.24V20l-14.46-8.39 4.14-2.38 14.21 8.21v6.77c0 .14.1.35-.14.43zM.05 8.27l3.31 1.89c.17.1.36.16.53.24v2.41l14.46 8.35-4.13 2.4L.05 15.38v-.9q-.05-3.1 0-6.21zM4 22.43a5.3 5.3 0 00-.65.28l-3 1.69a1.75 1.75 0 00-.23.24c0-.11-.13-.21-.13-.32C0 22.15 0 20 0 17.73L3.89 20v2a2.39 2.39 0 00.11.43zM24.53 10.4c.37-.19.75-.36 1.11-.57l2.73-1.57a3 3 0 01.05.42v6.37l-3.89-2.24z"/></g></g></svg>