<svg xmlns="http://www.w3.org/2000/svg" width="48" height="48" viewBox="0 0 48 48"><path fill="currentColor" fill-rule="nonzero" d="M24 0c13.255 0 24 10.745 24 24S37.255 48 24 48 0 37.255 0 24 10.745 0 24 0zm0 5.333C13.69 5.333 5.333 13.691 5.333 24c0 10.31 8.358 18.667 18.667 18.667 10.31 0 18.667-8.358 18.667-18.667 0-10.31-8.358-18.667-18.667-18.667zm0 13.334a2.667 2.667 0 012.667 2.666v13.334a2.667 2.667 0 01-5.334 0V21.333A2.667 2.667 0 0124 18.667zm0-8A2.667 2.667 0 1124 16a2.667 2.667 0 010-5.333z"/></svg>