<svg xmlns="http://www.w3.org/2000/svg" xmlns:xlink="http://www.w3.org/1999/xlink" width="18" height="18" viewBox="0 0 18 18"><path fill="currentColor" d="M9 10c3.391 0 6.5 1.206 8.923 3.212A3.999 3.999 0 0114 18H4a3.999 3.999 0 01-3.922-4.788A13.94 13.94 0 019 10zm0 2c-2.548 0-4.97.795-6.986 2.242C2.134 15.232 2.977 16 4 16h10a2.001 2.001 0 001.986-1.759A11.943 11.943 0 009 12zM9 0c2.486 0 4.5 2.014 4.5 4.5S11.486 9 9 9 4.5 6.986 4.5 4.5 6.514 0 9 0zm0 2C7.618 2 6.5 3.118 6.5 4.5S7.618 7 9 7s2.5-1.118 2.5-2.5S10.382 2 9 2z"/></svg>
