<svg xmlns="http://www.w3.org/2000/svg" width="20.704" height="19" viewBox="0 0 20.704 19"><path fill="currentColor" d="M14.476 6.424a3.212 3.212 0 10-3.212-3.212 3.162 3.162 0 00.142.893L5.691 6.791a3.212 3.212 0 100 4.086l5.715 2.685a3.157 3.157 0 00-.142.893 3.22 3.22 0 10.962-2.285L6.385 9.427a2.958 2.958 0 000-1.188L12.226 5.5a3.2 3.2 0 002.25.924zm0-4.818a1.606 1.606 0 11-1.606 1.606 1.606 1.606 0 011.606-1.606zM3.233 10.44a1.606 1.606 0 111.606-1.606 1.606 1.606 0 01-1.606 1.606zm11.243 2.409a1.606 1.606 0 11-1.606 1.606 1.606 1.606 0 011.606-1.606z"/></svg>
