<svg xmlns="http://www.w3.org/2000/svg" width="52" height="46" viewBox="0 0 52 46"><path fill="currentColor" fill-rule="nonzero" d="M30.382 2.274l.231.366 20.08 34.693c1.987 3.433-.346 7.714-4.22 7.987l-.393.013H5.92c-3.974 0-6.5-4.17-4.798-7.654l.185-.346L21.387 2.64c1.98-3.42 6.811-3.542 8.995-.366zM26 5.316L5.925 40h40.15L26 5.316zM26 32a2.667 2.667 0 110 5.334A2.667 2.667 0 0126 32zm0-16c1.467 0 2.667 1.2 2.667 2.667V24c0 1.467-1.2 2.667-2.667 2.667A2.675 2.675 0 0123.333 24v-5.333C23.333 17.2 24.533 16 26 16z"/></svg>